<svg width="1024" height="1024" xmlns="http://www.w3.org/2000/svg" class="icon">
 <defs>
  <style type="text/css"/>
 </defs>
 <g>
  <title>background</title>
  <rect fill="none" id="canvas_background" height="1026" width="1026" y="-1" x="-1"/>
 </g>
 <g>
  <title>Layer 1</title>
  <path stroke-width="32" fill="none" stroke="#333333" id="svg_1" d="m172.588711,850.961858c-1.584922,-7.909224 -1.584922,-28.467051 0,-50.6098c4.739379,-39.546119 20.573214,-68.013169 44.300885,-85.41654c17.40337,-12.648603 39.546119,-18.972904 58.534411,-23.727672c9.494146,-1.584922 18.988293,-4.739379 26.897516,-6.324301c47.455343,-11.063681 81.123401,-22.142749 117.499675,-69.598092c3.169845,-3.154457 22.158136,-31.636895 -28.467051,-93.310376c-22.158136,-26.897516 -36.391662,-63.27379 -42.715964,-109.144211c-6.339689,-47.455343 -1.584922,-91.740841 3.154457,-120.207892c6.339689,-33.221818 25.312594,-63.27379 53.795032,-85.416539s63.289178,-33.20643 98.095918,-33.20643c34.791352,0 69.598092,11.063681 98.08053,33.20643s47.470731,52.194722 53.795032,87.001462c4.739379,28.467051 9.494146,72.752549 3.169845,120.207892c-6.339689,44.285499 -20.573214,80.661773 -42.715964,109.128823c-50.640575,61.688868 -30.067361,90.171307 -28.482438,93.325764c36.391662,49.040265 85.431928,60.103946 132.88727,69.598092c9.494146,1.584922 18.988293,4.739379 28.482439,6.324302c17.40337,4.739379 39.546119,11.079068 56.949489,23.727672c52.21011,36.376274 47.470731,115.468513 45.885808,134.441417l-679.146891,0z"/>
 </g>
</svg>