<svg width="1024" height="1024" xmlns="http://www.w3.org/2000/svg" class="icon">
 <defs>
  <style type="text/css"/>
 </defs>
 <g>
  <title>background</title>
  <rect fill="none" id="canvas_background" height="402" width="582" y="-1" x="-1"/>
 </g>
 <g>
  <title>Layer 1</title>
  <path id="svg_1" fill="#ff5a6a" d="m183.038203,450.548905c-6.733413,6.04048 -11.815611,14.970931 -11.815611,25.361492c0,18.262364 14.779825,33.060063 33.021566,33.060063l66.100877,0l0,313.852676c0,18.281612 14.779138,33.022254 33.021566,33.022254l109.57006,0c18.223868,0 33.020191,-14.759889 33.020191,-33.022254l0,-132.157757l132.144009,0l0,132.157757c0,18.262364 14.720018,33.022254 33.003005,33.022254l109.54875,0c18.244491,0 33.022941,-14.740641 33.022941,-33.022254l0,-313.852676l66.080941,0c18.280237,0 33.020878,-14.797011 33.020878,-33.060063c0,-10.389873 -5.041639,-19.320325 -12.644656,-25.361492c-113.380505,-95.542975 -328.114176,-282.394334 -328.114176,-282.394334s-214.790728,186.851359 -328.980343,282.394334zm275.407258,-239.404979"/>
 </g>
</svg>