<svg width="1024" height="1024" xmlns="http://www.w3.org/2000/svg" class="icon">
 <defs>
  <style type="text/css"/>
 </defs>
 <g>
  <title>background</title>
  <rect fill="none" id="canvas_background" height="402" width="582" y="-1" x="-1"/>
 </g>
 <g>
  <title>Layer 1</title>
  <path stroke="null" id="svg_1" fill="#f12f04" d="m511.999995,127.999998c-211.698966,0 -384.131188,172.432222 -384.131188,384.131188s172.432222,384.131188 384.131188,384.131188s384.131188,-172.432222 384.131188,-384.131188s-172.432222,-384.131188 -384.131188,-384.131188zm151.091601,510.467667c6.828999,6.828999 6.828999,17.072497 0,23.901496c-3.414499,3.414499 -7.682624,5.121749 -11.950748,5.121749s-8.536249,-1.70725 -11.950748,-5.121749l-127.190104,-126.33648l-126.33648,127.190104c-3.414499,3.414499 -7.682624,5.121749 -11.950748,5.121749s-8.536249,-1.70725 -11.950748,-5.121749c-6.828999,-6.828999 -6.828999,-17.072497 0,-23.901496l126.33648,-127.190104l-127.190104,-126.33648c-6.828999,-6.828999 -6.828999,-17.072497 0,-23.901496s17.072497,-6.828999 23.901496,0l127.190104,126.33648l126.33648,-126.33648c6.828999,-6.828999 17.072497,-6.828999 23.901496,0s6.828999,17.072497 0,23.901496l-126.33648,126.33648l127.190104,126.33648z"/>
 </g>
</svg>