<svg width="1024" height="1024" xmlns="http://www.w3.org/2000/svg" class="icon">
 <defs>
  <style type="text/css"/>
 </defs>
 <g>
  <title>background</title>
  <rect fill="none" id="canvas_background" height="402" width="582" y="-1" x="-1"/>
 </g>
 <g>
  <title>Layer 1</title>
  <path stroke-width="32" stroke="#333333" id="svg_1" fill="none" d="m172.406983,636.515856c0,87.527786 70.957697,158.48098 158.475813,158.48098c62.017319,0 115.686096,-35.618426 141.731057,-87.512812l152.636646,26.885576l-0.055099,4.023578c0,62.526465 50.685246,113.19982 113.2005,113.19982c62.512544,0 113.197104,-50.673356 113.197104,-113.19982c0,-62.527123 -50.68456,-113.196425 -113.197104,-113.196425c-45.336524,0 -84.423016,26.609409 -102.508508,65.086187l-148.90486,-26.210787c1.571344,-8.939644 2.378787,-18.159543 2.378787,-27.556296c0,-41.375928 -15.866562,-79.037781 -41.819008,-107.247774l137.693164,-137.707309c12.425237,4.688174 25.889877,7.239734 39.959926,7.239734c62.515939,0 113.2005,-50.673376 113.2005,-113.196425c0,-62.523056 -50.68456,-113.197104 -113.2005,-113.197104c-62.511858,0 -113.196425,50.674048 -113.196425,113.197104c0,31.750617 13.077583,60.435409 34.124827,80.996182l-133.913069,133.912282c-23.779774,-14.257721 -51.581802,-22.474947 -81.327937,-22.474947c-87.518116,0.004074 -158.475813,70.950472 -158.475813,158.478257l0,0l0,0z"/>
 </g>
</svg>